<svg width="120" height="40" viewBox="0 0 120 40" fill="none" xmlns="http://www.w3.org/2000/svg">
  <!-- Airbnb Bélo symbol -->
  <g transform="translate(5, 8)">
    <path d="M8 2 C12 2, 14 4, 14 8 C14 12, 12 14, 8 14 C4 14, 2 12, 2 8 C2 4, 4 2, 8 2 Z M8 4 C10 4, 12 6, 12 8 C12 10, 10 12, 8 12 C6 12, 4 10, 4 8 C4 6, 6 4, 8 4 Z" fill="white" stroke="white" stroke-width="1"/>
    <circle cx="8" cy="8" r="2" fill="white"/>
  </g>
  <!-- Airbnb wordmark -->
  <text x="30" y="28" font-family="'Cereal', Arial, sans-serif" font-size="16" font-weight="bold" fill="white">airbnb</text>
</svg>