<svg width="120" height="40" viewBox="0 0 120 40" fill="none" xmlns="http://www.w3.org/2000/svg">
  <!-- Amazon smile arrow -->
  <g transform="translate(5, 8)">
    <path d="M2 8 C2 4, 4 2, 8 2 C12 2, 14 4, 14 8 C14 12, 12 14, 8 14 C4 14, 2 12, 2 8 Z M8 4 C10 4, 12 6, 12 8 C12 10, 10 12, 8 12 C6 12, 4 10, 4 8 C4 6, 6 4, 8 4 Z" fill="#FF9900"/>
    <path d="M10 6 L12 8 L10 10" stroke="white" stroke-width="1" fill="none"/>
  </g>
  <text x="25" y="28" font-family="Arial, sans-serif" font-size="16" font-weight="bold" fill="white">Amazon</text>
</svg>